<?xml version="1.0" standalone="no"?>
<!DOCTYPE svg PUBLIC "-//W3C//DTD SVG 20010904//EN"
 "http://www.w3.org/TR/2001/REC-SVG-20010904/DTD/svg10.dtd">
<svg version="1.0" xmlns="http://www.w3.org/2000/svg"
 width="300.000000pt" height="200.000000pt" viewBox="0 0 300.000000 200.000000"
 preserveAspectRatio="xMidYMid meet">

<g transform="translate(0.000000,200.000000) scale(0.100000,-0.100000)"
fill="#000000" stroke="none">
<path d="M925 1399 c-82 -12 -152 -34 -242 -75 -94 -42 -139 -75 -147 -108
-15 -60 78 -288 178 -439 79 -119 186 -178 325 -181 58 -1 76 4 141 37 41 21
115 71 163 112 49 40 105 81 125 91 35 16 37 16 77 -5 22 -11 74 -50 115 -86
78 -67 200 -138 259 -149 45 -8 153 10 213 36 118 51 288 320 331 525 10 47 9
56 -9 80 -43 60 -241 142 -388 162 -99 14 -198 3 -395 -44 -79 -19 -156 -35
-172 -35 -15 0 -92 16 -170 35 -133 33 -277 57 -324 54 -11 -1 -47 -5 -80 -10z
m161 -274 c59 -17 120 -67 163 -132 l31 -47 -22 -12 c-83 -42 -211 -42 -283 0
-45 27 -106 91 -131 138 -14 26 -13 27 34 42 94 30 137 32 208 11z m1024 -4
c57 -18 64 -25 50 -52 -22 -40 -103 -120 -144 -141 -57 -29 -134 -34 -211 -13
-36 9 -68 21 -71 26 -12 20 53 107 108 145 77 54 167 65 268 35z"/>
</g>
</svg>
